<svg id="Capa_1" enable-background="new 0 0 512 512" height="512" viewBox="0 0 512 512" width="512" xmlns="http://www.w3.org/2000/svg"><g><path d="m236.159 22.782c-120.048 9.447-215.773 105.817-224.493 225.92-8.978 123.646 73.878 229.58 187.334 256.617 23.277-4.784 47.391-3.525 70.043 3.659l6.957 2.206c109.371-8.838 198.454-89.496 220.014-194.768-4.749-11.025-3.308-23.74 3.788-33.422l.728-.994c.3-4.963.47-9.961.47-15 0-141.866-120.578-255.57-264.841-244.218z" fill="#99e6fc"/><path d="m384.145 282.5h37.478l-26.029-26.03c-2.605-2.605-4.04-6.069-4.04-9.753s1.435-7.148 4.04-9.753c2.604-2.605 6.068-4.04 9.753-4.04 3.684 0 7.147 1.435 9.752 4.04l31.38 31.379c3.824-23.331-3.247-48.098-21.241-66.092-20.662-20.662-50.255-26.928-76.348-18.826-3.263 1.013-5.821 3.571-6.834 6.834-8.102 26.094-1.836 55.687 18.826 76.348 6.909 6.911 14.82 12.202 23.263 15.893z" fill="#0ed290"/><path d="m384.145 282.5h37.478l-6.066-6.066c-12.704-3.274-24.726-9.876-34.676-19.826-20.571-20.571-26.867-49.992-18.928-76.001-4.412.556-8.786 1.49-13.064 2.818-3.263 1.013-5.821 3.571-6.834 6.834-8.102 26.094-1.836 55.687 18.826 76.348 6.91 6.911 14.822 12.202 23.264 15.893z" fill="#07b27b"/><g><path d="m372.471 358.407c-2.605 2.605-6.069 4.04-9.753 4.04-3.685 0-7.148-1.435-9.753-4.04s-4.04-6.069-4.04-9.753 1.435-7.147 4.04-9.752l31.379-31.38c-23.331-3.824-48.098 3.247-66.092 21.241-20.662 20.662-26.928 50.255-18.826 76.348 1.013 3.263 3.571 5.821 6.834 6.834 26.094 8.102 55.687 1.836 76.348-18.826 17.994-17.994 25.065-42.761 21.241-66.092z" fill="#0ed290"/><path d="m372.929 318.937 11.415-11.415c-23.331-3.824-48.098 3.247-66.092 21.241-20.662 20.662-26.928 50.255-18.826 76.348 1.013 3.263 3.571 5.821 6.834 6.834 4.279 1.328 8.652 2.263 13.064 2.818-7.939-26.009-1.643-55.431 18.928-76.001 9.95-9.949 21.973-16.551 34.677-19.825z" fill="#07b27b"/></g><path d="m104.302 282.5h26.321l-31.029-31.03c-2.605-2.605-4.04-6.069-4.04-9.753s1.435-7.148 4.04-9.753c2.604-2.605 6.068-4.04 9.753-4.04 3.684 0 7.147 1.435 9.752 4.04l21.398 21.398.193-.898c1.706-7.958 4.318-15.627 7.728-22.884-3.461-11.834-9.847-22.994-19.181-32.328-20.662-20.662-50.255-26.928-76.348-18.826-3.263 1.013-5.821 3.571-6.834 6.834-8.102 26.094-1.836 55.687 18.826 76.348 11.181 11.182 24.979 18.138 39.421 20.892z" fill="#0ed290"/><path d="m104.302 282.5h26.321l-11.066-11.066c-12.704-3.274-24.727-9.876-34.677-19.826-20.571-20.571-26.867-49.992-18.928-76.001-4.412.556-8.786 1.49-13.064 2.818-3.263 1.013-5.821 3.571-6.834 6.834-8.102 26.094-1.836 55.687 18.826 76.348 11.182 11.183 24.98 18.139 39.422 20.893z" fill="#07b27b"/><g fill="#d6694b"><path d="m460.842 282-45.389-45.389c-5.582-5.582-14.631-5.582-20.213 0s-5.582 14.631 0 20.213l25.176 25.176h-100.599c-4.058 12.105-9.794 23.662-17.137 34.416h31.767c15.116-8.597 32.548-11.586 49.282-8.986l-31.117 31.117c-5.582 5.582-5.582 14.631 0 20.213s14.631 5.582 20.213 0l42.344-42.344h80.846c2.296-11.21 3.808-22.704 4.516-34.416z"/><path d="m138.349 274.405c0-7.337.783-14.578 2.272-21.626l-21.168-21.168c-5.582-5.582-14.631-5.582-20.213 0s-5.582 14.631 0 20.213l30.176 30.176h-70.208c-9.504 0-17.208 7.704-17.208 17.208s7.704 17.208 17.208 17.208h79.141z"/></g><path d="m229.657 371.35c-.498 24.208-6.395 48.31-17.157 69.91-3.882 7.79-8.415 15.262-13.5 22.346v41.713c12.172 2.901 24.699 4.878 37.5 5.886v-142.282c-2.26.865-4.539 1.681-6.843 2.427z" fill="#fd4755"/><path d="m236 369.109v142.074c6.597.533 13.265.816 20 .816s13.403-.283 20-.816v-165.432c-12.088 10.057-25.587 17.905-40 23.358z" fill="#fb2b3a"/><g><path d="m327.021 111.025c-11.048 8.981-24.969 13.925-39.227 13.925-17.242 0-33.863-7.25-45.604-19.89-11.902-12.815-17.743-29.532-16.445-47.071 2.294-31.02 26.483-55.13 57.517-57.329 1.507-.106 3.032-.161 4.533-.161v-.499h-30.775c-38.775 0-70.501 31.725-70.501 70.501v102.074c7.86-11.059 18.05-20.404 29.916-27.254 3.375-1.949 6.902-3.703 10.483-5.214.568-.24 1.17-.361 1.786-.361.907 0 1.785.265 2.54.765 1.286.854 2.055 2.284 2.056 3.828l.053 121.049c0 11.043-1.223 22.071-3.634 32.778l-.013.054v69.797c0 1.274-.026 2.547-.056 3.821 56.623-18.332 97.87-71.68 97.87-134.203v-126.61z" fill="#e41f2d"/><path d="m288.375 0h-31.355c-38.775 0-70.501 31.725-70.501 70.501v102.074c5.572-7.84 12.319-14.813 20-20.651v-81.924c0-27.448 18.686-50.729 43.961-57.791 9.268-6.834 20.5-11.179 32.747-12.047 1.731-.123 3.448-.171 5.15-.156z" fill="#c41926"/><path d="m207.919 348.328c-2.83 14.996-7.689 29.6-14.473 43.217-8.937 17.936-21.234 34.238-35.986 47.866v56.242c0 1.758.995 3.365 2.569 4.148 1.401.698 3.046.635 4.38-.135.165-.095.324-.201.479-.317 20.179-15.255 36.798-35.265 48.059-57.865 11.291-22.662 17.259-48.066 17.26-73.467v-72.108c-3.939 18.861-11.505 36.626-22.288 52.419z" fill="#08a9f1"/><path d="m157.46 439.411v56.242c0 1.758.995 3.365 2.569 4.148 1.401.698 3.046.635 4.38-.135.165-.095.324-.201.479-.317 4.367-3.302 8.556-6.839 12.572-10.563v-71.475c-5.99 7.94-12.692 15.348-20 22.1z" fill="#0290cf"/><g><path d="m327.021 71.366v32.766c19.612-2.077 35.959-15.059 42.89-32.766z" fill="#fb8801"/><path d="m381.558 65.444c-3.164-25.69-25.064-45.581-51.61-45.581-.992 0-1.977.034-2.956.089.007.163.03.323.03.487v51.427h48.826c3.439 0 6.13-3.008 5.71-6.422z" fill="#fea613"/><path d="m381.558 65.444c-3.164-25.69-25.064-45.581-51.61-45.581-.993 0-1.977.036-2.956.091.007.162.03.321.03.485v11.933c.143-.001.283-.009.426-.009 24.281 0 44.665 16.645 50.389 39.144 2.416-.892 4.055-3.346 3.721-6.063z" fill="#fe9901"/><g><path d="m322.045 10.173c-11.024-7.201-24.45-11.029-38.818-10.011-31.077 2.202-55.683 26.721-57.98 57.791-2.721 36.798 26.328 67.497 62.548 67.497 15.077 0 28.908-5.323 39.726-14.187v-90.825c0-4.12-2.026-8.011-5.476-10.265z" fill="#fedba6"/></g><path d="m307.795 115.45c-36.22 0-65.27-30.699-62.548-67.497 1.378-18.633 10.785-34.903 24.793-45.423-24.615 7.172-42.832 28.905-44.793 55.423-2.721 36.798 26.328 67.497 62.548 67.497 14.104 0 27.117-4.66 37.594-12.518-5.583 1.63-11.483 2.518-17.594 2.518z" fill="#fece85"/></g><g><g><circle cx="298.555" cy="49.31" fill="#8c3d27" r="18.445"/></g></g><path d="m176.445 381.736c-.168.131-.343.248-.522.352-.697.402-1.492.615-2.298.615-.695 0-1.394-.162-2.02-.467-1.564-.766-2.575-2.386-2.575-4.127l.001-151.085c0-11.616 2.185-22.965 6.254-33.541-23.451 20.11-37.436 49.662-37.437 80.924v172.076c0 1.776 1.005 3.399 2.595 4.19 1.415.705 3.077.642 4.424-.136.166-.096.327-.203.483-.32 20.383-15.409 37.168-35.62 48.542-58.447 6.98-14.009 11.935-29.058 14.737-44.506-8.669 12.941-19.468 24.594-32.184 34.472z" fill="#fd4755"/><path d="m169.031 227.023c0-11.616 2.185-22.965 6.254-33.541-23.451 20.11-37.436 49.662-37.437 80.924v172.076c0 1.776 1.005 3.399 2.595 4.19 1.415.705 3.077.642 4.424-.136.166-.096.327-.203.483-.32 3.382-2.557 6.655-5.258 9.831-8.069v-157.742c0-18.561 4.938-36.518 13.849-52.258v-5.124z" fill="#fb2b3a"/><g><path d="m176.172 382.521c-1.456.84-3.25.915-4.787.164-1.748-.855-2.855-2.631-2.855-4.577v-151.085c-.001-33.692 18.259-65.165 47.654-82.136 3.392-1.958 6.938-3.722 10.54-5.241 1.573-.663 3.374-.495 4.796.448 1.423.944 2.278 2.537 2.279 4.244l.053 121.049c0 45.999-20.813 88.551-57.102 116.744-.184.145-.378.275-.578.39z" fill="#fea613"/></g><path d="m188.531 227.023c-.001-32.77 17.277-63.436 45.27-80.706l-.001-1.979c-.001-1.707-.856-3.3-2.279-4.244s-3.224-1.111-4.796-.448c-3.602 1.519-7.148 3.283-10.54 5.241-29.395 16.971-47.655 48.444-47.654 82.136v151.085c0 1.946 1.107 3.721 2.855 4.577 1.537.751 3.331.677 4.787-.164.2-.115.394-.245.579-.39 4.133-3.211 8.055-6.618 11.779-10.185z" fill="#fe9901"/></g></g></svg>